<?xml version="1.0" standalone="no"?><svg xmlns="http://www.w3.org/2000/svg" viewBox="0 0 1440 320"><path fill="#ffd700" fill-opacity="1" d="M0,0L0,288L36.9,288L36.9,224L73.8,224L73.8,64L110.8,64L110.8,160L147.7,160L147.7,160L184.6,160L184.6,64L221.5,64L221.5,96L258.5,96L258.5,96L295.4,96L295.4,96L332.3,96L332.3,256L369.2,256L369.2,160L406.2,160L406.2,224L443.1,224L443.1,128L480,128L480,256L516.9,256L516.9,0L553.8,0L553.8,32L590.8,32L590.8,160L627.7,160L627.7,64L664.6,64L664.6,192L701.5,192L701.5,160L738.5,160L738.5,256L775.4,256L775.4,128L812.3,128L812.3,96L849.2,96L849.2,32L886.2,32L886.2,224L923.1,224L923.1,128L960,128L960,192L996.9,192L996.9,0L1033.8,0L1033.8,0L1070.8,0L1070.8,320L1107.7,320L1107.7,288L1144.6,288L1144.6,64L1181.5,64L1181.5,288L1218.5,288L1218.5,128L1255.4,128L1255.4,224L1292.3,224L1292.3,128L1329.2,128L1329.2,288L1366.2,288L1366.2,320L1403.1,320L1403.1,224L1440,224L1440,320L1403.1,320L1403.1,320L1366.2,320L1366.2,320L1329.2,320L1329.2,320L1292.3,320L1292.3,320L1255.4,320L1255.4,320L1218.5,320L1218.5,320L1181.5,320L1181.5,320L1144.6,320L1144.6,320L1107.7,320L1107.7,320L1070.8,320L1070.8,320L1033.8,320L1033.8,320L996.9,320L996.9,320L960,320L960,320L923.1,320L923.1,320L886.2,320L886.2,320L849.2,320L849.2,320L812.3,320L812.3,320L775.4,320L775.4,320L738.5,320L738.5,320L701.5,320L701.5,320L664.6,320L664.6,320L627.7,320L627.7,320L590.8,320L590.8,320L553.8,320L553.8,320L516.9,320L516.9,320L480,320L480,320L443.1,320L443.1,320L406.2,320L406.2,320L369.2,320L369.2,320L332.3,320L332.3,320L295.4,320L295.4,320L258.5,320L258.5,320L221.5,320L221.5,320L184.6,320L184.6,320L147.7,320L147.7,320L110.8,320L110.8,320L73.8,320L73.8,320L36.9,320L36.9,320L0,320L0,320Z"></path></svg>